<svg xmlns="http://www.w3.org/2000/svg" width="256" height="256" viewBox="0 0 256 256">
  <defs>
    <linearGradient id="bg" x1="0" y1="0" x2="0" y2="1">
      <stop offset="0" stop-color="#38a3e8"/>
      <stop offset="1" stop-color="#1c6fb3"/>
    </linearGradient>
  </defs>
  <rect x="0" y="0" width="256" height="256" rx="56" fill="url(#bg)"/>
  <g transform="translate(53,53) scale(6.25)" fill="#ffffff">
    <!-- open: border-left-variant -->
    <path d="M15,5H17V3H15M19,21H21V19H19M19,13H21V11H19M19,5H21V3H19M19,17H21V15H19M15,21H17V19H15M19,9H21V7H19M3,21H5V3H3M7,5H9V3H7M7,21H9V19H7M11,5H13V3H11M11,21H13V19H11V21Z"/>
    <!-- tilted: border-bottom-variant -->
    <path d="M5,15H3V17H5M3,21H21V19H3M5,11H3V13H5M19,9H21V7H19M19,5H21V3H19M5,7H3V9H5M19,17H21V15H19M19,13H21V11H19M17,3H15V5H17M13,3H11V5H13M5,3H3V5H5M9,3H7V5H9"/>
  </g>
</svg>
